<svg width="93" height="89" viewBox="0 0 93 89" fill="none" xmlns="http://www.w3.org/2000/svg">
<path d="M74.0133 77.0251C71.7495 81.3744 65.7434 82.1232 65.8343 88.4084C67.12 87.9577 67.9928 87.739 68.5734 87.3223C75.7556 82.3827 83.0753 77.3657 90.1802 72.2885C91.3414 71.4551 92.8211 69.8998 92.8003 68.7347C92.7285 66.5121 90.5662 66.369 88.7263 66.3163C82.8841 66.0679 76.9647 65.6819 71.0151 65.4033C71.645 68.9417 71.645 68.9417 81.3122 70.8432C65.255 79.32 46.563 71.988 41.5001 54.9182C43.2457 54.4807 44.9612 54.1506 46.7069 53.7132C51.7289 52.3404 55.8101 49.7763 58.7016 45.2555C60.7713 42.0109 61.3837 38.5893 59.3437 35.1189C57.1963 31.6182 53.8048 30.8983 49.9742 31.3303C41.7455 32.1509 36.2525 37.6805 35.5555 45.9471C35.4991 46.9745 35.2277 47.9416 34.9431 49.3687C24.7385 47.3164 16.04 42.7889 9.99185 34.6001C0.55003 21.9815 6.96252 9.87069 15.7922 3.19092C16.8459 2.32743 18.1617 1.76934 20.011 0.549502C16.5894 -0.0629369 14.3876 1.17389 12.2933 2.44086C4.08369 7.32403 -0.556844 18.0774 1.44964 27.4503C2.79607 33.3922 5.65623 38.4839 10.1979 42.5405C16.8793 48.4726 24.5334 52.5912 33.4014 54.0365C34.2912 54.1703 35.1508 54.4115 36.2555 54.6056C39.0669 62.3497 42.8415 69.5526 50.375 74.101C57.7538 78.3742 65.8279 77.2783 74.0133 77.0251ZM40.265 49.8189C38.9071 41.4394 43.2783 35.3632 50.5136 35.1911C52.2762 35.1062 54.4725 35.9543 55.6282 37.206C57.2307 38.9308 56.3524 41.2346 54.9198 43.035C51.3704 47.8349 46.4427 49.6978 40.265 49.8189Z" fill="url(#paint0_linear_102_2772)"/>
<defs>
<linearGradient id="paint0_linear_102_2772" x1="79" y1="99" x2="29" y2="-16.5" gradientUnits="userSpaceOnUse">
<stop stop-color="#B9B4BC"/>
<stop offset="1" stop-color="#B9B4BC" stop-opacity="0"/>
</linearGradient>
</defs>
</svg>
