<svg width="413" height="38" viewBox="0 0 413 38" fill="none" xmlns="http://www.w3.org/2000/svg">
<path d="M379.153 1.18088C370.201 1.05334 361.095 0.932524 351.989 0.811706C349.057 0.766957 345.978 0.901241 343.045 0.856492C336.572 0.966171 330.098 1.07585 323.624 1.18553C320.076 1.16763 316.381 1.32877 312.833 1.31088C311.755 1.35788 310.677 1.40488 309.754 1.44517C307.444 1.54588 305.135 1.64659 302.672 1.75402C292.049 2.2173 281.426 2.68058 270.803 3.14385C268.34 3.25128 265.723 3.36542 263.267 3.64517C256.963 4.09277 250.805 4.36133 244.5 4.80893C237.426 5.2901 230.344 5.59896 223.27 6.08013C211.892 6.92161 200.361 7.76981 188.983 8.6113C182.371 9.07233 175.758 9.53336 169.146 9.99438C157.776 11.0082 146.406 12.022 135.036 13.0358C128.739 13.6557 122.588 14.0966 116.291 14.7165C104.474 16.0951 92.6499 17.3014 80.8256 18.5076C74.5285 19.1276 68.2315 19.7475 61.942 20.5397C50.2866 22.0839 38.4848 23.8071 26.837 25.5236C24.3813 25.8034 21.7791 26.2621 19.1694 26.5486C14.2655 27.2804 9.22258 28.3636 4.17219 29.2744C3.86429 29.2878 3.56389 29.4736 3.25599 29.487C2.64018 29.5139 2.19335 29.8786 1.75403 30.4157C1.02184 31.3109 0.759027 32.3582 0.804118 33.3922C0.849209 34.4261 1.20221 35.4465 2.00203 36.1023C2.6479 36.7647 3.74812 37.2346 4.51789 37.2011C10.646 36.2432 16.6125 35.1198 22.7406 34.1619C28.4143 33.3965 34.088 32.6312 39.7618 31.8658C45.8973 31.0803 52.0254 30.1224 58.3149 29.3302C60.7707 29.0504 63.2189 28.5984 65.8286 28.3119C75.5051 27.372 85.0201 26.2664 94.6966 25.3265C100.686 24.72 106.675 24.1135 112.664 23.507C115.12 23.2273 117.576 22.9475 120.031 22.6678C129.554 21.7345 139.084 20.9736 148.606 20.0404C154.449 19.6129 160.13 19.0199 165.973 18.5924C167.974 18.5051 169.814 18.2522 171.816 18.1649C182.116 17.3705 192.423 16.7483 202.723 15.9538C208.411 15.5331 214.254 15.1056 219.943 14.6849C221.944 14.5976 224.092 14.3313 226.094 14.244C236.709 13.6084 247.332 13.1451 258.101 12.5028C264.721 12.2141 271.333 11.7531 277.953 11.4643C289.192 10.9742 300.584 10.4774 311.83 10.1595C313.986 10.0655 316.303 10.1371 318.458 10.0431C324.778 9.94019 330.943 9.84394 337.27 9.91329C341.896 9.88418 346.676 9.84836 351.302 9.81926C354.697 9.84386 357.938 9.87518 361.332 9.89979C371.054 9.99375 380.937 10.2533 390.666 10.5196C393.136 10.5845 395.607 10.6494 398.078 10.7143C400.703 10.7724 403.481 10.8239 406.114 11.0544C406.576 11.0343 406.891 11.1932 407.36 11.3453C408.446 11.4706 409.369 11.4304 410.263 10.7008C411.164 10.1436 411.735 9.0828 411.998 8.03546C412.516 5.76847 411.179 3.40972 408.993 2.81445C407.124 2.37806 405.269 2.28632 403.56 2.01554C402.321 1.89693 401.082 1.77833 399.85 1.83204C397.372 1.59483 394.909 1.70226 392.584 1.45833C388.266 1.47401 383.632 1.3308 379.153 1.18088Z" fill="url(#paint0_linear_102_2880)"/>
<defs>
<linearGradient id="paint0_linear_102_2880" x1="537.35" y1="-5.10056" x2="35.5996" y2="30.3031" gradientUnits="userSpaceOnUse">
<stop stop-color="#FF6F37" stop-opacity="0.19"/>
<stop offset="1" stop-color="#FF603C"/>
</linearGradient>
</defs>
</svg>
